<?xml version="1.0" encoding="UTF-8"?>
<!DOCTYPE svg PUBLIC "-//W3C//DTD SVG 1.1//EN" "http://www.w3.org/Graphics/SVG/1.1/DTD/svg11.dtd">
<svg xmlns="http://www.w3.org/2000/svg" version="1.1" width="512px" height="512px" style="shape-rendering:geometricPrecision; text-rendering:geometricPrecision; image-rendering:optimizeQuality; fill-rule:evenodd; clip-rule:evenodd" xmlns:xlink="http://www.w3.org/1999/xlink">
<g><path style="opacity:0.939" fill="#000000" d="M 139.5,84.5 C 161.704,82.3524 178.537,90.6858 190,109.5C 198.664,125.826 206.497,142.492 213.5,159.5C 212.196,168.307 207.196,171.807 198.5,170C 196.413,169.208 194.579,168.041 193,166.5C 185,150.5 177,134.5 169,118.5C 154.667,102.5 140.333,102.5 126,118.5C 97.3333,163.167 68.6667,207.833 40,252.5C 35.1805,255.865 30.0139,256.365 24.5,254C 20.3592,249.375 19.5258,244.209 22,238.5C 50.6667,193.833 79.3333,149.167 108,104.5C 116.076,93.9079 126.576,87.2412 139.5,84.5 Z"/></g>
<g><path style="opacity:0.94" fill="#000000" d="M 355.5,84.5 C 375.192,82.3328 391.026,88.9995 403,104.5C 431.667,149.167 460.333,193.833 489,238.5C 492.613,251.444 487.78,256.944 474.5,255C 472.714,254.215 471.214,253.049 470,251.5C 440.79,204.908 410.956,158.741 380.5,113C 368.264,104.009 356.431,104.509 345,114.5C 335.373,132.254 325.873,150.087 316.5,168C 306.391,173.275 300.057,170.442 297.5,159.5C 305.248,140.669 314.082,122.336 324,104.5C 332.076,93.9079 342.576,87.2412 355.5,84.5 Z"/></g>
<g><path style="opacity:0.953" fill="#000000" d="M 511.5,282.5 C 511.5,285.833 511.5,289.167 511.5,292.5C 510.636,293.688 509.636,294.855 508.5,296C 503.887,297.791 499.22,299.457 494.5,301C 492.036,304.049 490.536,307.549 490,311.5C 489.426,324.006 489.593,336.506 490.5,349C 488.592,381.929 472.258,404.595 441.5,417C 409.647,427.631 377.314,429.298 344.5,422C 302.816,409.163 279.649,380.997 275,337.5C 269.591,332.373 263.091,330.04 255.5,330.5C 247.909,330.04 241.409,332.373 236,337.5C 229.188,387.312 201.021,416.478 151.5,425C 123.498,428.925 96.165,426.259 69.5,417C 29.5593,399.127 13.5593,368.46 21.5,325C 21.5663,319.102 21.0663,313.269 20,307.5C 17.9518,301.044 13.4518,297.878 6.5,298C 3.37935,297.033 1.04602,295.2 -0.5,292.5C -0.5,289.167 -0.5,285.833 -0.5,282.5C 1.68565,279.389 4.68565,277.222 8.5,276C 60.7736,257.424 114.44,251.424 169.5,258C 198.314,263.537 226.98,269.704 255.5,276.5C 284.323,269.545 313.323,263.378 342.5,258C 399.619,251.065 454.952,258.065 508.5,279C 509.636,280.145 510.636,281.312 511.5,282.5 Z M 109.5,277.5 C 138.591,276.176 167.257,279.009 195.5,286C 212.155,308.77 215.989,333.604 207,360.5C 195.014,386.094 174.847,400.261 146.5,403C 127.323,405.42 108.323,404.42 89.5,400C 50.3408,388.704 35.3408,363.037 44.5,323C 44.8707,311.863 42.5374,301.363 37.5,291.5C 46.2213,288.235 55.2213,285.735 64.5,284C 79.5521,281.155 94.5521,278.988 109.5,277.5 Z M 364.5,277.5 C 395.217,276.31 425.55,279.143 455.5,286C 461.748,287.225 467.748,289.059 473.5,291.5C 468.463,301.363 466.129,311.863 466.5,323C 475.735,365.217 459.401,391.217 417.5,401C 390.637,406.928 364.303,405.261 338.5,396C 312.599,383.545 299.599,362.879 299.5,334C 299.27,316.359 304.436,300.525 315,286.5C 331.355,282.144 347.855,279.144 364.5,277.5 Z M 227.5,294.5 C 246.167,298.5 264.833,298.5 283.5,294.5C 281.969,300.63 280.136,306.63 278,312.5C 270.836,309.5 263.336,308.167 255.5,308.5C 247.664,308.167 240.164,309.5 233,312.5C 230.864,306.63 229.031,300.63 227.5,294.5 Z"/></g>
</svg>
