<?xml version="1.0" encoding="UTF-8"?>
<!DOCTYPE svg PUBLIC "-//W3C//DTD SVG 1.1//EN" "http://www.w3.org/Graphics/SVG/1.1/DTD/svg11.dtd">
<svg xmlns="http://www.w3.org/2000/svg" version="1.1" width="512px" height="512px" style="shape-rendering:geometricPrecision; text-rendering:geometricPrecision; image-rendering:optimizeQuality; fill-rule:evenodd; clip-rule:evenodd" xmlns:xlink="http://www.w3.org/1999/xlink">
<g><path style="opacity:0.981" fill="#007bff" d="M 195.5,-0.5 C 202.833,-0.5 210.167,-0.5 217.5,-0.5C 234.753,3.8808 248.253,13.5475 258,28.5C 260.953,36.0361 264.287,43.3695 268,50.5C 270.537,53.372 273.37,55.872 276.5,58C 289.052,61.2714 299.718,67.6047 308.5,77C 327.833,77.3333 347.167,77.6667 366.5,78C 385.778,80.2794 397.945,90.7794 403,109.5C 403.667,124.167 403.667,138.833 403,153.5C 399.964,156.704 396.797,159.704 393.5,162.5C 390.203,165.296 387.036,168.296 384,171.5C 383.667,151.833 383.333,132.167 383,112.5C 380.094,104.785 374.594,99.952 366.5,98C 351.504,97.5001 336.504,97.3334 321.5,97.5C 323.763,103.964 324.763,110.63 324.5,117.5C 324.5,130.5 324.5,143.5 324.5,156.5C 245.833,156.5 167.167,156.5 88.5,156.5C 88.5,143.5 88.5,130.5 88.5,117.5C 88.6628,111.026 89.6628,104.693 91.5,98.5C 76.1775,97.3338 60.8442,97.1671 45.5,98C 37.9745,99.8385 32.8078,104.339 30,111.5C 29.3333,233.167 29.3333,354.833 30,476.5C 31.7246,483.892 36.2246,488.725 43.5,491C 97.6667,491.167 151.833,491.333 206,491.5C 261.544,491.659 317.044,491.159 372.5,490C 377.445,487.054 380.945,482.888 383,477.5C 383.667,422.167 383.667,366.833 383,311.5C 376.631,317.702 370.464,324.035 364.5,330.5C 363.833,330.5 363.5,330.833 363.5,331.5C 336.167,358.5 308.833,385.5 281.5,412.5C 263.167,412.5 244.833,412.5 226.5,412.5C 226.5,393.833 226.5,375.167 226.5,356.5C 239.833,342.5 253.5,328.833 267.5,315.5C 280.473,302.193 293.473,288.86 306.5,275.5C 325.833,256.833 344.833,237.833 363.5,218.5C 373.833,208.833 383.833,198.833 393.5,188.5C 409.965,172.535 426.299,156.368 442.5,140C 450.167,135.333 457.833,135.333 465.5,140C 476.667,151.167 487.833,162.333 499,173.5C 503.494,182.104 502.827,190.437 497,198.5C 466,229.5 435,260.5 404,291.5C 403.667,354.5 403.333,417.5 403,480.5C 398.642,496.69 388.476,507.023 372.5,511.5C 261.5,511.5 150.5,511.5 39.5,511.5C 20.598,505.421 10.4314,492.421 9,472.5C 8.01696,351.146 8.35029,229.813 10,108.5C 15.501,90.3306 27.6677,80.164 46.5,78C 65.5,77.6667 84.5,77.3333 103.5,77C 112.8,67.846 123.8,61.5127 136.5,58C 139.295,56.2068 141.795,54.0402 144,51.5C 148.186,43.2877 152.186,34.9543 156,26.5C 165.72,12.3951 178.886,3.39512 195.5,-0.5 Z"/></g>
<g><path style="opacity:1" fill="#007bff" d="M 304.5,117.5 C 239.167,117.5 173.833,117.5 108.5,117.5C 108.5,115.833 108.5,114.167 108.5,112.5C 109.985,101.698 114.985,92.8646 123.5,86C 131.212,81.76 139.212,78.0934 147.5,75C 155.772,70.0614 161.939,63.228 166,54.5C 173.516,27.5001 191.016,16.3334 218.5,21C 228.404,24.2368 235.904,30.4034 241,39.5C 246.833,62.6667 261.333,77.1667 284.5,83C 297.293,90.9569 303.959,102.457 304.5,117.5 Z"/></g>
<g><path style="opacity:1" fill="#007bff" d="M 203.5,43.5 C 218.547,44.6909 223.714,52.3576 219,66.5C 210.632,75.746 202.299,75.746 194,66.5C 189.461,55.6129 192.627,47.9463 203.5,43.5 Z"/></g>
<g><path style="opacity:1" fill="#007bff" d="M 88.5,117.5 C 75.5,117.5 62.5,117.5 49.5,117.5C 48.5005,235.665 48.1671,353.999 48.5,472.5C 153.833,472.5 259.167,472.5 364.5,472.5C 364.5,425.167 364.5,377.833 364.5,330.5C 370.464,324.035 376.631,317.702 383,311.5C 383.667,366.833 383.667,422.167 383,477.5C 380.945,482.888 377.445,487.054 372.5,490C 317.044,491.159 261.544,491.659 206,491.5C 151.833,491.333 97.6667,491.167 43.5,491C 36.2246,488.725 31.7246,483.892 30,476.5C 29.3333,354.833 29.3333,233.167 30,111.5C 32.8078,104.339 37.9745,99.8385 45.5,98C 60.8442,97.1671 76.1775,97.3338 91.5,98.5C 89.6628,104.693 88.6628,111.026 88.5,117.5 Z"/></g>
<g><path style="opacity:1" fill="#007bff" d="M 393.5,162.5 C 393.5,171.167 393.5,179.833 393.5,188.5C 383.833,198.833 373.833,208.833 363.5,218.5C 363.5,184.833 363.5,151.167 363.5,117.5C 350.5,117.5 337.5,117.5 324.5,117.5C 324.763,110.63 323.763,103.964 321.5,97.5C 336.504,97.3334 351.504,97.5001 366.5,98C 374.594,99.952 380.094,104.785 383,112.5C 383.333,132.167 383.667,151.833 384,171.5C 387.036,168.296 390.203,165.296 393.5,162.5 Z"/></g>
<g><path style="opacity:1" fill="#fdfefe" d="M 49.5,117.5 C 62.5,117.5 75.5,117.5 88.5,117.5C 88.5,130.5 88.5,143.5 88.5,156.5C 167.167,156.5 245.833,156.5 324.5,156.5C 324.5,143.5 324.5,130.5 324.5,117.5C 337.5,117.5 350.5,117.5 363.5,117.5C 363.5,151.167 363.5,184.833 363.5,218.5C 344.833,237.833 325.833,256.833 306.5,275.5C 233.833,275.5 161.167,275.5 88.5,275.5C 88.5,288.5 88.5,301.5 88.5,314.5C 148.336,314.168 208.002,314.501 267.5,315.5C 253.5,328.833 239.833,342.5 226.5,356.5C 225.503,375.326 225.17,394.326 225.5,413.5C 244.341,413.83 263.007,413.497 281.5,412.5C 308.833,385.5 336.167,358.5 363.5,331.5C 363.5,378.167 363.5,424.833 363.5,471.5C 258.833,471.5 154.167,471.5 49.5,471.5C 49.5,353.5 49.5,235.5 49.5,117.5 Z"/></g>
<g><path style="opacity:1" fill="white" d="M 108.5,117.5 C 173.833,117.5 239.167,117.5 304.5,117.5C 304.5,123.833 304.5,130.167 304.5,136.5C 239.167,136.5 173.833,136.5 108.5,136.5C 108.5,130.167 108.5,123.833 108.5,117.5 Z"/></g>
<g><path style="opacity:1" fill="#007bff" d="M 108.5,112.5 C 108.5,114.167 108.5,115.833 108.5,117.5C 108.5,123.833 108.5,130.167 108.5,136.5C 173.833,136.5 239.167,136.5 304.5,136.5C 239.002,137.499 173.335,137.832 107.5,137.5C 107.174,128.983 107.507,120.65 108.5,112.5 Z"/></g>
<g><path style="opacity:1" fill="#007bff" d="M 467.5,170.5 C 463.167,175.167 458.833,179.833 454.5,184.5C 448.977,180.158 444.477,175.158 441,169.5C 445.045,165.119 449.378,161.119 454,157.5C 458.99,161.324 463.49,165.657 467.5,170.5 Z"/></g>
<g><path style="opacity:1" fill="#007bff" d="M 467.5,170.5 C 473.023,174.842 477.523,179.842 481,185.5C 476.667,189.833 472.333,194.167 468,198.5C 463.297,193.965 458.797,189.298 454.5,184.5C 458.833,179.833 463.167,175.167 467.5,170.5 Z"/></g>
<g><path style="opacity:1" fill="white" d="M 439.5,198.5 C 435.441,203.562 430.774,207.895 425.5,211.5C 420.854,207.521 416.521,203.188 412.5,198.5C 416.818,193.681 421.318,189.015 426,184.5C 430.703,189.035 435.203,193.702 439.5,198.5 Z"/></g>
<g><path style="opacity:1" fill="#007bff" d="M 88.5,196.5 C 167.167,196.5 245.833,196.5 324.5,196.5C 324.5,209.5 324.5,222.5 324.5,235.5C 245.833,235.5 167.167,235.5 88.5,235.5C 88.5,222.5 88.5,209.5 88.5,196.5 Z"/></g>
<g><path style="opacity:1" fill="white" d="M 439.5,198.5 C 444.479,202.812 449.146,207.479 453.5,212.5C 449.182,217.319 444.682,221.985 440,226.5C 434.963,221.631 430.13,216.631 425.5,211.5C 430.774,207.895 435.441,203.562 439.5,198.5 Z"/></g>
<g><path style="opacity:1" fill="#007bff" d="M 411.5,226.5 C 370.167,268.167 328.833,309.833 287.5,351.5C 281.977,347.158 277.477,342.158 274,336.5C 315.333,295.167 356.667,253.833 398,212.5C 402.703,217.035 407.203,221.702 411.5,226.5 Z"/></g>
<g><path style="opacity:1" fill="#007bff" d="M 411.5,226.5 C 417.023,230.842 421.523,235.842 425,241.5C 383.667,282.833 342.333,324.167 301,365.5C 296.297,360.965 291.797,356.298 287.5,351.5C 328.833,309.833 370.167,268.167 411.5,226.5 Z"/></g>
<g><path style="opacity:1" fill="#007bff" d="M 306.5,275.5 C 293.473,288.86 280.473,302.193 267.5,315.5C 208.002,314.501 148.336,314.168 88.5,314.5C 88.5,301.5 88.5,288.5 88.5,275.5C 161.167,275.5 233.833,275.5 306.5,275.5 Z"/></g>
<g><path style="opacity:1" fill="#007bff" d="M 49.5,117.5 C 49.5,235.5 49.5,353.5 49.5,471.5C 154.167,471.5 258.833,471.5 363.5,471.5C 363.5,424.833 363.5,378.167 363.5,331.5C 363.5,330.833 363.833,330.5 364.5,330.5C 364.5,377.833 364.5,425.167 364.5,472.5C 259.167,472.5 153.833,472.5 48.5,472.5C 48.1671,353.999 48.5005,235.665 49.5,117.5 Z"/></g>
<g><path style="opacity:1" fill="#007bff" d="M 226.5,356.5 C 226.5,375.167 226.5,393.833 226.5,412.5C 244.833,412.5 263.167,412.5 281.5,412.5C 263.007,413.497 244.341,413.83 225.5,413.5C 225.17,394.326 225.503,375.326 226.5,356.5 Z"/></g>
<g><path style="opacity:1" fill="white" d="M 272.5,365.5 C 277.479,369.812 282.146,374.479 286.5,379.5C 282.349,384.152 278.015,388.652 273.5,393C 264.104,395.771 256.77,393.271 251.5,385.5C 259.111,379.557 266.111,372.891 272.5,365.5 Z"/></g>
<g><path style="opacity:1" fill="#007bff" d="M 88.5,353.5 C 121.167,353.5 153.833,353.5 186.5,353.5C 186.5,366.833 186.5,380.167 186.5,393.5C 153.833,393.5 121.167,393.5 88.5,393.5C 88.5,380.167 88.5,366.833 88.5,353.5 Z"/></g>
<g><path style="opacity:1" fill="white" d="M 272.5,365.5 C 266.111,372.891 259.111,379.557 251.5,385.5C 249.537,384.04 247.704,382.373 246,380.5C 245.333,375.167 245.333,369.833 246,364.5C 250.333,360.167 254.667,355.833 259,351.5C 263.703,356.035 268.203,360.702 272.5,365.5 Z"/></g>
</svg>
